<svg width="18" height="20" viewBox="0 0 18 20" fill="none" xmlns="http://www.w3.org/2000/svg">
<path d="M8 13C7.1183 13 6.28093 12.8098 5.52682 12.4682C5.00429 12.2315 4.74302 12.1131 4.59797 12.0722C4.4472 12.0297 4.35983 12.0143 4.20361 12.0026C4.05331 11.9914 3.94079 12 3.71575 12.0172C3.6237 12.0242 3.5425 12.0341 3.46558 12.048C2.23442 12.2709 1.27087 13.2344 1.04798 14.4656C1 14.7306 1 15.0485 1 15.6841V17.4C1 17.9601 1 18.2401 1.10899 18.454C1.20487 18.6422 1.35785 18.7951 1.54601 18.891C1.75992 19 2.03995 19 2.6 19H5.4M12 5C12 7.20914 10.2091 9 8 9C5.79086 9 4 7.20914 4 5C4 2.79086 5.79086 1 8 1C10.2091 1 12 2.79086 12 5ZM9.5898 19L11.6148 18.595C11.7914 18.5597 11.8797 18.542 11.962 18.5097C12.0351 18.4811 12.1045 18.4439 12.1689 18.399C12.2414 18.3484 12.3051 18.2848 12.4324 18.1574L16.5898 14C17.1421 13.4477 17.1421 12.5523 16.5898 12C16.0376 11.4477 15.1421 11.4477 14.5898 12L10.4324 16.1574C10.3051 16.2848 10.2414 16.3484 10.1908 16.421C10.1459 16.4853 10.1088 16.5548 10.0801 16.6279C10.0478 16.7102 10.0302 16.7985 9.9948 16.975L9.5898 19Z" stroke="#404040" stroke-width="2" stroke-linecap="round" stroke-linejoin="round"/>
</svg>
