<svg width="14" height="20" viewBox="0 0 14 20" fill="none" xmlns="http://www.w3.org/2000/svg">
<path d="M13 19V20C13.5523 20 14 19.5523 14 19H13ZM1.00001 19H5.09885e-06C5.09885e-06 19.5523 0.447725 20 1.00001 20V19ZM4.00001 4.00001C3.44773 4.00001 3.00001 4.44773 3.00001 5.00001C3.00001 5.55229 3.44773 6.00001 4.00001 6.00001V4.00001ZM5.00001 6.00001C5.55231 6.00001 6.00001 5.55229 6.00001 5.00001C6.00001 4.44773 5.55231 4.00001 5.00001 4.00001V6.00001ZM4.00001 7.00001C3.44773 7.00001 3.00001 7.44772 3.00001 8C3.00001 8.55231 3.44773 9 4.00001 9V7.00001ZM5.00001 9C5.55231 9 6.00001 8.55231 6.00001 8C6.00001 7.44772 5.55231 7.00001 5.00001 7.00001V9ZM9 7.00001C8.4477 7.00001 8 7.44772 8 8C8 8.55231 8.4477 9 9 9V7.00001ZM10 9C10.5523 9 11 8.55231 11 8C11 7.44772 10.5523 7.00001 10 7.00001V9ZM9 10C8.4477 10 8 10.4477 8 11C8 11.5523 8.4477 12 9 12V10ZM10 12C10.5523 12 11 11.5523 11 11C11 10.4477 10.5523 10 10 10V12ZM4.00001 10C3.44773 10 3.00001 10.4477 3.00001 11C3.00001 11.5523 3.44773 12 4.00001 12V10ZM5.00001 12C5.55231 12 6.00001 11.5523 6.00001 11C6.00001 10.4477 5.55231 10 5.00001 10V12ZM9 4.00001C8.4477 4.00001 8 4.44773 8 5.00001C8 5.55229 8.4477 6.00001 9 6.00001V4.00001ZM10 6.00001C10.5523 6.00001 11 5.55229 11 5.00001C11 4.44773 10.5523 4.00001 10 4.00001V6.00001ZM2.6 2.00001H11.4V5.10328e-06H2.6V2.00001ZM12 2.6V19H14V2.6H12ZM13 18H1.00001V20H13V18ZM2.00001 19V2.6H5.09885e-06V19H2.00001ZM11.4 2.00001C11.6965 2.00001 11.8588 2.00079 11.9754 2.01031C12.0803 2.01888 12.0575 2.0293 12 2.00001L12.908 0.217995C12.6366 0.079695 12.3668 0.035625 12.1382 0.016955C11.9213 -0.000775004 11.6635 5.10328e-06 11.4 5.10328e-06V2.00001ZM14 2.6C14 2.33647 14.0008 2.0787 13.9831 1.86178C13.9644 1.63319 13.9203 1.36345 13.782 1.09203L12 2.00001C11.9707 1.94249 11.9811 1.91973 11.9897 2.02464C11.9992 2.14123 12 2.30347 12 2.6H14ZM12 2.00001L13.782 1.09203C13.5903 0.715705 13.2843 0.409735 12.908 0.217995L12 2.00001ZM2.6 5.10328e-06C2.33647 5.10328e-06 2.0787 -0.000775004 1.86178 0.016955C1.63319 0.035625 1.36345 0.079695 1.09203 0.217995L2.00001 2.00001C1.94249 2.0293 1.91973 2.01888 2.02464 2.01031C2.14123 2.00079 2.30347 2.00001 2.6 2.00001V5.10328e-06ZM2.00001 2.6C2.00001 2.30347 2.00079 2.14123 2.01031 2.02464C2.01888 1.91973 2.0293 1.94249 2.00001 2.00001L0.217995 1.09203C0.079695 1.36345 0.0356252 1.63319 0.0169552 1.86178C-0.000774771 2.0787 5.09885e-06 2.33647 5.09885e-06 2.6H2.00001ZM1.09203 0.217995C0.715695 0.409735 0.409735 0.715695 0.217995 1.09203L2.00001 2.00001L1.09203 0.217995ZM4.00001 6.00001H5.00001V4.00001H4.00001V6.00001ZM4.00001 9H5.00001V7.00001H4.00001V9ZM9 9H10V7.00001H9V9ZM9 12H10V10H9V12ZM4.00001 12H5.00001V10H4.00001V12ZM9 6.00001H10V4.00001H9V6.00001ZM8 16V19H10V16H8ZM6.00001 19V16H4.00001V19H6.00001ZM7.00001 15C7.55231 15 8 15.4477 8 16H10C10 14.3431 8.65691 13 7.00001 13V15ZM7.00001 13C5.34311 13 4.00001 14.3431 4.00001 16H6.00001C6.00001 15.4477 6.44771 15 7.00001 15V13Z" fill="#4A4A4A"/>
</svg>
